<svg id="Layer_1" data-name="Layer 1" xmlns="http://www.w3.org/2000/svg" viewBox="0 0 91.97 73.89"><defs><style>.cls-1,.cls-2{fill:none;stroke:#fff;stroke-linecap:round;stroke-linejoin:round;}.cls-1{stroke-width:3px;}.cls-2{stroke-width:2px;}</style></defs><path class="cls-1" d="M136.32,127.78a7.28,7.28,0,0,1-7.28,7.28h0a7.28,7.28,0,0,1-7.28-7.28V112.56a7.28,7.28,0,0,1,7.28-7.29h0a7.28,7.28,0,0,1,7.28,7.29v9" transform="translate(-54.13 -62.67)"/><path class="cls-1" d="M135.77,110.13h.44c4.88,0,8.38,4,8.38,8.82v4a8.82,8.82,0,0,1-8.82,8.82h0" transform="translate(-54.13 -62.67)"/><line class="cls-1" x1="72.21" y1="43.12" x2="72.21" y2="49.44"/><path class="cls-1" d="M63.9,127.78a7.28,7.28,0,0,0,7.28,7.28h0a7.28,7.28,0,0,0,7.28-7.28V112.56a7.28,7.28,0,0,0-7.28-7.29h0a7.28,7.28,0,0,0-7.28,7.29v9" transform="translate(-54.13 -62.67)"/><path class="cls-1" d="M64.45,110.13H64c-4.88,0-8.38,4-8.38,8.82v4a8.82,8.82,0,0,0,8.82,8.82h0" transform="translate(-54.13 -62.67)"/><line class="cls-1" x1="19.76" y1="64.12" x2="19.76" y2="70.44"/><path class="cls-1" d="M126.17,75.91l-.06.11a2.44,2.44,0,0,1-3.57.73,38.63,38.63,0,0,0-45-.64,2.46,2.46,0,0,1-3.47-.62l-.07-.1A2.46,2.46,0,0,1,74.63,72a43.68,43.68,0,0,1,50.91.72A2.44,2.44,0,0,1,126.17,75.91Z" transform="translate(-54.13 -62.67)"/><path class="cls-1" d="M126.07,76.06c12.54,8.92,14.9,18,14.9,34.26" transform="translate(-54.13 -62.67)"/><path class="cls-1" d="M59.11,110.32c0-16.17,2.29-25.21,14.74-34.15" transform="translate(-54.13 -62.67)"/><line class="cls-2" x1="46.14" y1="15.81" x2="46.14" y2="20.29"/><line class="cls-2" x1="46.14" y1="23.57" x2="46.14" y2="53.85"/><line class="cls-2" x1="39.04" y1="21.2" x2="39.04" y2="48.46"/><line class="cls-2" x1="31.94" y1="27.64" x2="31.94" y2="28.71"/><line class="cls-2" x1="31.94" y1="32.57" x2="31.94" y2="42.03"/><line class="cls-2" x1="24.52" y1="32.57" x2="24.52" y2="37.1"/><line class="cls-2" x1="52.93" y1="45.26" x2="52.93" y2="48.46"/><line class="cls-2" x1="52.93" y1="21.2" x2="52.93" y2="41.21"/><line class="cls-2" x1="60.03" y1="27.64" x2="60.03" y2="42.03"/><line class="cls-2" x1="67.45" y1="32.57" x2="67.45" y2="37.1"/></svg>